<svg width="38" height="38" viewBox="0 0 38 38" fill="none" xmlns="http://www.w3.org/2000/svg">
<path d="M19 23.5C14.0294 23.5 10 19.4706 10 14.5V6.16666C10 5.5459 10 5.2355 10.0905 4.98697C10.2421 4.57031 10.5703 4.24211 10.987 4.09046C11.2355 4 11.5459 4 12.1667 4H25.8334C26.4541 4 26.7644 4 27.013 4.09046C27.4297 4.24211 27.7579 4.57031 27.9095 4.98697C28 5.2355 28 5.5459 28 6.16666V14.5C28 19.4706 23.9706 23.5 19 23.5ZM19 23.5V28M28 7H31.75C32.4489 7 32.7984 7 33.0741 7.11418C33.4416 7.26641 33.7336 7.55844 33.8859 7.92598C34 8.20164 34 8.55109 34 9.25V10C34 11.395 34 12.0924 33.8467 12.6647C33.4306 14.2176 32.2176 15.4306 30.6648 15.8467C30.0925 16 29.395 16 28 16M10 7H6.25C5.55109 7 5.20164 7 4.92598 7.11418C4.55844 7.26641 4.26641 7.55844 4.11418 7.92598C4 8.20164 4 8.55109 4 9.25V10C4 11.395 4 12.0924 4.15333 12.6647C4.56943 14.2176 5.7824 15.4306 7.33531 15.8467C7.90756 16 8.60504 16 10 16M12.1667 34H25.8334C26.2015 34 26.5 33.7015 26.5 33.3334C26.5 30.3878 24.1121 28 21.1666 28H16.8334C13.8878 28 11.5 30.3878 11.5 33.3334C11.5 33.7015 11.7985 34 12.1667 34Z" stroke="white" stroke-width="2.5" stroke-linecap="round" stroke-linejoin="round"/>
</svg>
