<?xml version="1.0" encoding="UTF-8"?>
<svg id="Layer_2" data-name="Layer 2" xmlns="http://www.w3.org/2000/svg" viewBox="0 0 777.04 429.46">
  <defs>
    <style>
      .cls-1 {
        fill: #fff;
      }

      .cls-2 {
        fill: #b6ddeb;
      }
    </style>
  </defs>
  <g id="Layer_1-2" data-name="Layer 1">
    <g>
      <path class="cls-1" d="M702.34,295.43c4.53-16.77,5.25-35.34,2.02-52.44-12.32-65.14-78.2-103.5-140.33-75.75l-18.71,10.45c17.9-82.48-42.25-153.2-119.6-172.33-64.95-16.06-139.21,4.08-179.62,58.77-17.53,23.72-27.53,53.29-26.27,83.03-26.91-8.24-56.45-4.56-80.09,10.68-33.14,21.36-50.32,61.64-37.13,99.98-8.25-.67-15.92-.7-24.11.69-53.55,9.09-93.07,68.62-73.34,121.01,6.86,18.22,26.53,40.49,47.03,41.83,25.98,1.71,54.92.17,81.25.53,181.84,2.48,363.84,5.63,545.75,7.09,19.27.15,31.71,2.46,50.54-4.48,24.4-8.98,42.85-31.11,46.6-56.99,6.33-43.75-30.83-78.69-73.99-72.07ZM716.06,374.29c-1.84,3.4-6.81,8.55-10.54,9.63-6.6,1.92-16.76-.02-23.6-.2-194.45-5.22-389.09-8.47-583.37-14.72-4.21-.13-11.51.74-15.18-.09-1.03-.23-8.74-3.75-10.22-4.49-24.56-12.35-15.54-42.26,5.82-52.57,13.86-6.69,27.27-5.53,40.37,2.03,9.71,5.6,11.65,12.86,24.44,12.67,8.7-.14,21.81-13.68,24.01-21.82,3.51-12.98-9.88-34.1-13.77-47.34-8.86-30.13-1.45-72.65,38.21-69.27,26.8,2.27,38.67,24.75,56.21,40.28,18.54,16.41,41.32,6.37,43.35-17.74.56-6.66-2.19-9.91-2.6-14.84-.09-1.09.53-2.1.48-3.14-.3-5.69-3.91-11.79-5.65-17.3-20.74-65.99,27.06-122.03,93.27-124.54,58.88-2.24,118.87,41.25,127.06,101.03,3.99,29.08-4.73,47.42-17.98,71.81-.85,1.57-2.73,2.93-3.69,5.04-4.79,10.54-.51,25.19,8.65,32.11,3.84,2.91,16.06,4.03,20.71,2.69,19.26-5.55,34.73-20.42,52.7-29.62,68.65-35.15,105.62,9.89,79.13,77.48-3.6,9.18-9.53,17.88-10.25,27.91-.41,5.71,2.5,10.67,7.66,13.11,25.83,12.2,38.8-28.1,65.59-9.98,10.08,6.81,15.23,20.7,9.19,31.87Z"/>
      <path class="cls-2" d="M377.28,50.84c58.89-2.23,118.87,41.26,127.07,101.04,3.99,29.08-4.73,47.42-17.98,71.81-.85,1.56-2.73,2.93-3.69,5.03-4.79,10.54-.51,25.2,8.65,32.12,3.84,2.9,16.06,4.03,20.71,2.69,19.26-5.55,34.74-20.42,52.7-29.62,68.65-35.16,105.62,9.89,79.12,77.48-3.6,9.18-9.53,17.88-10.25,27.91-.41,5.7,2.5,10.67,7.66,13.1,25.83,12.21,38.8-28.1,65.59-9.98,10.08,6.81,15.23,20.7,9.19,31.88-1.84,3.39-6.81,8.54-10.54,9.63-6.59,1.92-16.76-.02-23.6-.2-194.45-5.22-389.08-8.47-583.37-14.72-4.21-.14-11.51.74-15.17-.09-1.03-.23-8.75-3.75-10.22-4.5-24.56-12.35-15.54-42.26,5.82-52.56,13.86-6.69,27.27-5.53,40.37,2.02,9.72,5.6,11.66,12.87,24.45,12.67,8.7-.13,21.81-13.68,24.01-21.82,3.51-12.98-9.88-34.1-13.77-47.33-8.86-30.14-1.45-72.65,38.21-69.28,26.8,2.28,38.67,24.76,56.21,40.28,18.53,16.41,41.32,6.37,43.35-17.74.56-6.66-2.19-9.91-2.6-14.84-.09-1.09.53-2.11.47-3.15-.3-5.69-3.91-11.79-5.64-17.3-20.74-65.99,27.06-122.03,93.26-124.54Z"/>
    </g>
  </g>
</svg>