<svg width="44" height="44" viewBox="0 0 44 44" fill="none" xmlns="http://www.w3.org/2000/svg">
<path d="M6.75004 40.1576C7.87988 40.5 9.40592 40.5 12 40.5H31.5C34.0941 40.5 35.6201 40.5 36.75 40.1576M6.75004 40.1576C6.50779 40.0843 6.28374 39.9953 6.07131 39.8869C5.01289 39.3476 4.15238 38.4872 3.61309 37.4287C3 36.2254 3 34.6504 3 31.5V12C3 8.8497 3 7.27455 3.61309 6.07131C4.15238 5.01289 5.01289 4.15238 6.07131 3.61309C7.27455 3 8.8497 3 12 3H31.5C34.6504 3 36.2254 3 37.4287 3.61309C38.4872 4.15238 39.3476 5.01289 39.8869 6.07131C40.5 7.27455 40.5 8.8497 40.5 12V31.5C40.5 34.6504 40.5 36.2254 39.8869 37.4287C39.3476 38.4872 38.4872 39.3476 37.4287 39.8869C37.2163 39.9953 36.9922 40.0843 36.75 40.1576M6.75004 40.1576C6.75066 38.6402 6.75977 37.8373 6.89411 37.1618C7.48592 34.1867 9.81165 31.8609 12.7868 31.2692C13.5113 31.125 14.3825 31.125 16.125 31.125H27.375C29.1174 31.125 29.9887 31.125 30.7132 31.2692C33.6883 31.8609 36.0141 34.1867 36.6058 37.1618C36.7402 37.8373 36.7493 38.6402 36.75 40.1576M29.25 17.0625C29.25 21.2046 25.8921 24.5625 21.75 24.5625C17.6079 24.5625 14.25 21.2046 14.25 17.0625C14.25 12.9204 17.6079 9.5625 21.75 9.5625C25.8921 9.5625 29.25 12.9204 29.25 17.0625Z" stroke="white" stroke-width="2" stroke-linecap="round" stroke-linejoin="round"/>
</svg>
