<svg width="36" height="36" viewBox="0 0 36 36" fill="none" xmlns="http://www.w3.org/2000/svg">
<path d="M18.7895 4.57895H25.4211C28.074 4.57895 29.4003 4.57895 30.4137 5.09523C31.305 5.54937 32.0296 6.27401 32.4837 7.16531C33 8.17857 33 9.50501 33 12.1579V25.4211C33 28.074 33 29.4003 32.4837 30.4137C32.0296 31.305 31.305 32.0296 30.4137 32.4837C29.4003 33 28.074 33 25.4211 33H12.1579C9.50501 33 8.17857 33 7.16531 32.4837C6.27401 32.0296 5.54937 31.305 5.09523 30.4137C4.57895 29.4003 4.57895 28.074 4.57895 25.4211V18.7895M12.4737 20.3684V26.6842M25.1053 17.2105V26.6842M18.7895 10.8947V26.6842M3 7.73684L7.73684 3M7.73684 3L12.4737 7.73684M7.73684 3V12.4737" stroke="white" stroke-width="2.5" stroke-linecap="round" stroke-linejoin="round"/>
</svg>
