<svg width="38" height="38" viewBox="0 0 38 38" fill="none" xmlns="http://www.w3.org/2000/svg">
<path d="M14 19H6.66667C5.73325 19 5.26653 19 4.91002 19.1817C4.59642 19.3415 4.34145 19.5963 4.18165 19.91C4 20.2665 4 20.7332 4 21.6667V31.3333C4 32.2668 4 32.7335 4.18165 33.09C4.34145 33.4037 4.59642 33.6585 4.91002 33.8183C5.26653 34 5.73325 34 6.66667 34H14M14 34H24M14 34V13.3333C14 12.3999 14 11.9332 14.1816 11.5767C14.3414 11.2631 14.5964 11.0081 14.91 10.8483C15.2665 10.6667 15.7332 10.6667 16.6667 10.6667H21.3333C22.2668 10.6667 22.7335 10.6667 23.09 10.8483C23.4037 11.0081 23.6585 11.2631 23.8183 11.5767C24 11.9332 24 12.3999 24 13.3333V34M24 34H31.3333C32.2668 34 32.7335 34 33.09 33.8183C33.4037 33.6585 33.6585 33.4037 33.8183 33.09C34 32.7335 34 32.2668 34 31.3333V6.66667C34 5.73325 34 5.26653 33.8183 4.91002C33.6585 4.59642 33.4037 4.34145 33.09 4.18165C32.7335 4 32.2668 4 31.3333 4H26.6667C25.7332 4 25.2665 4 24.91 4.18165C24.5963 4.34145 24.3415 4.59642 24.1817 4.91002C24 5.26653 24 5.73325 24 6.66667V12.3333" stroke="white" stroke-width="2.5" stroke-linecap="round" stroke-linejoin="round"/>
</svg>
