<svg width="34" height="34" viewBox="0 0 34 34" fill="none" xmlns="http://www.w3.org/2000/svg">
<path d="M13.0714 32H20.9286M13.8571 14H20.1429M17 14V23M21.7143 21.9896C25.4306 20.3043 28 16.6886 28 12.5C28 6.70102 23.0751 2 17 2C10.9249 2 6 6.70102 6 12.5C6 16.6886 8.56936 20.3043 12.2857 21.9896V23C12.2857 24.3979 12.2857 25.0967 12.5249 25.6481C12.8439 26.3831 13.4558 26.9672 14.2258 27.2717C14.8035 27.5 15.5356 27.5 17 27.5C18.4644 27.5 19.1965 27.5 19.7742 27.2717C20.5442 26.9672 21.1561 26.3831 21.4751 25.6481C21.7143 25.0967 21.7143 24.3979 21.7143 23V21.9896Z" stroke="white" stroke-width="2.5" stroke-linecap="round" stroke-linejoin="round"/>
</svg>
